<svg id="visual" viewBox="0 0 900 600" width="900" height="600" xmlns="http://www.w3.org/2000/svg" xmlns:xlink="http://www.w3.org/1999/xlink" version="1.1"><path d="M513 600L491 592.3C469 584.7 425 569.3 432.8 554C440.7 538.7 500.3 523.3 523.3 508C546.3 492.7 532.7 477.3 522.5 461.8C512.3 446.3 505.7 430.7 477.3 415.2C449 399.7 399 384.3 390.5 369C382 353.7 415 338.3 446 323C477 307.7 506 292.3 524.7 277C543.3 261.7 551.7 246.3 542 231C532.3 215.7 504.7 200.3 494.7 184.8C484.7 169.3 492.3 153.7 506.2 138.2C520 122.7 540 107.3 551.8 92C563.7 76.7 567.3 61.3 547.8 46C528.3 30.7 485.7 15.3 464.3 7.7L443 0L900 0L900 7.7C900 15.3 900 30.7 900 46C900 61.3 900 76.7 900 92C900 107.3 900 122.7 900 138.2C900 153.7 900 169.3 900 184.8C900 200.3 900 215.7 900 231C900 246.3 900 261.7 900 277C900 292.3 900 307.7 900 323C900 338.3 900 353.7 900 369C900 384.3 900 399.7 900 415.2C900 430.7 900 446.3 900 461.8C900 477.3 900 492.7 900 508C900 523.3 900 538.7 900 554C900 569.3 900 584.7 900 592.3L900 600Z" fill="#FFFFFF" stroke-linecap="round" stroke-linejoin="miter"></path></svg>