<svg id="visual" viewBox="0 0 900 600" width="900" height="600" xmlns="http://www.w3.org/2000/svg" xmlns:xlink="http://www.w3.org/1999/xlink" version="1.1"><path d="M397 600L442.5 590C488 580 579 560 598.3 540C617.7 520 565.3 500 521 480C476.7 460 440.3 440 419.7 420C399 400 394 380 434 360C474 340 559 320 600.5 300C642 280 640 260 593.3 240C546.7 220 455.3 200 457.2 180C459 160 554 140 572.2 120C590.3 100 531.7 80 490.7 60C449.7 40 426.3 20 414.7 10L403 0L900 0L900 10C900 20 900 40 900 60C900 80 900 100 900 120C900 140 900 160 900 180C900 200 900 220 900 240C900 260 900 280 900 300C900 320 900 340 900 360C900 380 900 400 900 420C900 440 900 460 900 480C900 500 900 520 900 540C900 560 900 580 900 590L900 600Z" fill="#0066FF" stroke-linecap="round" stroke-linejoin="miter"></path></svg>